<?xml version="1.0" encoding="UTF-8"?>
<svg width="32" height="32" viewBox="0 0 32 32" fill="none" xmlns="http://www.w3.org/2000/svg">
  <!-- Background with gradient -->
  <defs>
    <linearGradient id="grad" x1="0%" y1="0%" x2="100%" y2="100%">
      <stop offset="0%" style="stop-color:#3B82F6;stop-opacity:1" />
      <stop offset="100%" style="stop-color:#1D4ED8;stop-opacity:1" />
    </linearGradient>
  </defs>
  
  <!-- Outer square with gradient -->
  <rect x="2" y="2" width="28" height="28" rx="6" fill="url(#grad)"/>
  
  <!-- QR Code pattern -->
  <!-- Top left square -->
  <rect x="6" y="6" width="7" height="7" rx="1" fill="white"/>
  <rect x="8" y="8" width="3" height="3" rx="0.5" fill="url(#grad)"/>
  
  <!-- Top right square -->
  <rect x="19" y="6" width="7" height="7" rx="1" fill="white"/>
  <rect x="21" y="8" width="3" height="3" rx="0.5" fill="url(#grad)"/>
  
  <!-- Bottom left square -->
  <rect x="6" y="19" width="7" height="7" rx="1" fill="white"/>
  <rect x="8" y="21" width="3" height="3" rx="0.5" fill="url(#grad)"/>
  
  <!-- Center square -->
  <rect x="14" y="14" width="4" height="4" rx="0.5" fill="white"/>
  
  <!-- Bottom right square -->
  <rect x="19" y="19" width="7" height="7" rx="1" fill="white"/>
  <rect x="21" y="21" width="3" height="3" rx="0.5" fill="url(#grad)"/>
  
  <!-- Additional QR code elements -->
  <rect x="14" y="8" width="1" height="1" fill="white"/>
  <rect x="17" y="8" width="1" height="1" fill="white"/>
  <rect x="8" y="14" width="1" height="1" fill="white"/>
  <rect x="8" y="17" width="1" height="1" fill="white"/>
  <rect x="23" y="14" width="1" height="1" fill="white"/>
  <rect x="23" y="17" width="1" height="1" fill="white"/>
  <rect x="14" y="23" width="1" height="1" fill="white"/>
  <rect x="17" y="23" width="1" height="1" fill="white"/>
</svg> 